<?xml version="1.0" encoding="iso-8859-1"?>
<!-- Generator: Adobe Illustrator 18.0.0, SVG Export Plug-In . SVG Version: 6.00 Build 0)  -->
<!DOCTYPE svg PUBLIC "-//W3C//DTD SVG 1.1//EN" "http://www.w3.org/Graphics/SVG/1.1/DTD/svg11.dtd">
<svg version="1.1" id="Capa_1" xmlns="http://www.w3.org/2000/svg" xmlns:xlink="http://www.w3.org/1999/xlink" x="0px" y="0px"
	 viewBox="0 0 344.023 344.023" style="enable-background:new 0 0 344.023 344.023;" xml:space="preserve">
<path d="M317.184,0h-37.038v93.328c0,3.324-2.238,6.233-5.454,7.082c-0.621,0.164-1.25,0.242-1.872,0.242
	c-2.587,0-5.043-1.372-6.367-3.702l-21.1-37.103L224.253,96.95c-1.642,2.89-5.026,4.309-8.24,3.46
	c-3.212-0.849-5.451-3.758-5.451-7.082V0H65.541c-8.189,0-14.828,6.64-14.828,14.83v25.916h-4.171
	c-19.039,0-34.531,15.492-34.531,34.531c0,19.041,15.491,34.531,34.531,34.531h4.171v116.808h-4.171
	c-19.039,0-34.531,15.49-34.531,34.532c0,19.039,15.491,34.53,34.531,34.53h4.171v33.515c0,8.19,6.638,14.83,14.828,14.83h251.643
	c8.19,0,14.828-6.64,14.828-14.83V14.83C332.012,6.64,325.373,0,317.184,0z M79.392,277.835h-30.59
	c-8.831,0-15.99-7.159-15.99-15.992c0-8.831,7.159-15.99,15.99-15.99h30.59c8.831,0,15.99,7.159,15.99,15.99
	C95.381,270.676,88.223,277.835,79.392,277.835z M79.392,91.965h-30.59c-8.831,0-15.99-7.158-15.99-15.99
	c0-8.832,7.159-15.991,15.99-15.991h30.59c8.831,0,15.99,7.159,15.99,15.991C95.381,84.807,88.223,91.965,79.392,91.965z"/>
<g>
</g>
<g>
</g>
<g>
</g>
<g>
</g>
<g>
</g>
<g>
</g>
<g>
</g>
<g>
</g>
<g>
</g>
<g>
</g>
<g>
</g>
<g>
</g>
<g>
</g>
<g>
</g>
<g>
</g>
</svg>
