<?xml version="1.0" encoding="iso-8859-1"?>
<!-- Generator: Adobe Illustrator 16.0.0, SVG Export Plug-In . SVG Version: 6.00 Build 0)  -->
<!DOCTYPE svg PUBLIC "-//W3C//DTD SVG 1.1//EN" "http://www.w3.org/Graphics/SVG/1.1/DTD/svg11.dtd">
<svg version="1.1" id="Capa_1" xmlns="http://www.w3.org/2000/svg" xmlns:xlink="http://www.w3.org/1999/xlink" x="0px" y="0px"
	 width="31.861px" height="31.861px" viewBox="0 0 31.861 31.861" style="enable-background:new 0 0 31.861 31.861;"
	 xml:space="preserve">
<g>
	<g>
		<path d="M15.204,9.977c0.7-0.789,1.953-0.959,2.827-0.461V1.739H10.26V1.723V0.691h-3.1v1.032v0.016H0v20.606h5.57l-3.219,6.846
			c-0.242,0.516-0.021,1.133,0.494,1.376c0.517,0.241,1.13,0.022,1.373-0.493l3.633-7.725l0.003-0.004h3.174l0.003,0.004
			l3.633,7.726c0.177,0.373,0.547,0.593,0.936,0.593c0.146,0,0.295-0.031,0.438-0.099c0.516-0.242,0.736-0.858,0.493-1.372
			l-3.213-6.846l-0.002-0.006h4.716v-6.804l-2.641-2.351C14.453,12.358,14.372,10.916,15.204,9.977z M3.274,8.593h2.838v9.254H3.274
			V8.593z M10.128,17.848H7.68H7.291v-5.063h2.837v2.773V17.848z M14.101,17.848h-2.838V4.009h2.838V17.848z"/>
		<circle cx="25.786" cy="4.48" r="3.077"/>
		<path d="M28.364,8.74l-2.578,3.558l-2.547-3.317l-3.05,3.75l-2.446-2.173c-0.513-0.457-1.3-0.411-1.76,0.102
			c-0.454,0.515-0.411,1.302,0.104,1.761l3.417,3.037c0.229,0.204,0.521,0.316,0.825,0.316c0.03,0,0.06-0.001,0.091-0.007
			c0.34-0.025,0.661-0.189,0.877-0.453l1.361-1.682v4.633c0,0.58,0,1.121,0.262,1.584v10.099c0,0.69,0.645,1.222,1.332,1.222
			c0.691,0,1.337-0.441,1.337-1.271h0.33c0,0.829,0.583,1.271,1.272,1.271c0.686,0,1.271-0.529,1.271-1.222V19.85
			c0.262-0.465,0.262-1.006,0.262-1.586V14.24c0.524,1.111,0.561,2.592,0.555,4.453c-0.002,0.689,0.643,1.294,1.332,1.294h0.002
			c0.688,0,1.244-0.599,1.248-1.287C31.879,12.308,29.805,9.732,28.364,8.74z"/>
		<path d="M27.225,7.877l-0.731,0.314c-0.152-0.256-0.425-0.426-0.744-0.426s-0.594,0.173-0.739,0.432l-0.732-0.308
			c-0.105-0.045-0.252-0.033-0.348,0.029c-0.099,0.065-0.18,0.172-0.18,0.289v0.914c0,0.109,0.074,0.212,0.161,0.278
			c0.09,0.065,0.217,0.084,0.321,0.054c0.289-0.09,0.658-0.197,0.863-0.259c0.157,0.18,0.396,0.296,0.65,0.296
			c0.271,0,0.508-0.124,0.667-0.315c0.204,0.062,0.56,0.172,0.847,0.259c0.104,0.031,0.18,0.012,0.271-0.054
			c0.087-0.064,0.104-0.167,0.104-0.277V8.195c0-0.115-0.023-0.223-0.121-0.287C27.416,7.843,27.332,7.834,27.225,7.877z"/>
	</g>
</g>
<g>
</g>
<g>
</g>
<g>
</g>
<g>
</g>
<g>
</g>
<g>
</g>
<g>
</g>
<g>
</g>
<g>
</g>
<g>
</g>
<g>
</g>
<g>
</g>
<g>
</g>
<g>
</g>
<g>
</g>
</svg>
