<?xml version="1.0" standalone="no"?>
<!DOCTYPE svg PUBLIC "-//W3C//DTD SVG 20010904//EN"
 "http://www.w3.org/TR/2001/REC-SVG-20010904/DTD/svg10.dtd">
<svg version="1.0" xmlns="http://www.w3.org/2000/svg"
 width="200.000000pt" height="180.000000pt" viewBox="0 0 200.000000 180.000000"
 preserveAspectRatio="xMidYMid meet">
<metadata>
Created by potrace 1.12, written by Peter Selinger 2001-2015
</metadata>
<g transform="translate(0.000000,180.000000) scale(0.100000,-0.100000)"
fill="#000000" stroke="none">
<path d="M67 1253 c-11 -11 -8 -683 3 -683 5 0 48 21 95 47 l85 47 0 50 0 51
94 87 93 87 62 -63 63 -63 1 -74 2 -74 90 0 90 0 2 85 1 85 -101 103 -101 102
109 110 110 110 -105 0 -105 0 -150 -141 -150 -141 -3 141 -3 141 -88 0 c-48
0 -91 -3 -94 -7z"/>
<path d="M915 1190 l69 -70 83 0 83 0 2 -279 3 -278 88 49 87 50 0 229 0 229
88 0 88 0 69 70 69 70 -399 0 -399 0 69 -70z"/>
<path d="M1810 1030 l0 -230 -202 0 -202 0 69 -70 70 -71 155 1 155 1 68 67
67 66 0 233 0 233 -90 0 -90 0 0 -230z"/>
</g>
</svg>
