<?xml version="1.0" standalone="no"?>
<!DOCTYPE svg PUBLIC "-//W3C//DTD SVG 20010904//EN"
 "http://www.w3.org/TR/2001/REC-SVG-20010904/DTD/svg10.dtd">
<svg version="1.0" xmlns="http://www.w3.org/2000/svg"
 width="120.000000pt" height="120.000000pt" viewBox="0 0 120.000000 120.000000"
 preserveAspectRatio="xMidYMid meet">
<metadata>
Created by potrace 1.12, written by Peter Selinger 2001-2015
</metadata>
<g transform="translate(0.000000,120.000000) scale(0.100000,-0.100000)"
fill="#000000" stroke="none">
<path d="M398 1008 c-17 -14 -238 -538 -238 -565 0 -18 104 -219 128 -245 33
-39 77 -23 272 99 78 48 144 86 148 84 4 -2 25 -47 47 -100 l41 -96 122 -3
c67 -1 122 0 122 3 0 11 -332 791 -346 813 -14 21 -21 22 -147 22 -92 0 -138
-4 -149 -12z m227 -416 c42 -101 75 -186 72 -188 -2 -3 -74 -3 -159 -2 l-155
3 72 171 c39 94 75 179 78 189 4 10 9 16 11 14 2 -2 38 -87 81 -187z"/>
</g>
</svg>
