<?xml version="1.0" standalone="no"?>
<!DOCTYPE svg PUBLIC "-//W3C//DTD SVG 20010904//EN"
 "http://www.w3.org/TR/2001/REC-SVG-20010904/DTD/svg10.dtd">
<svg version="1.0" xmlns="http://www.w3.org/2000/svg"
 width="2362.000000pt" height="2362.000000pt" viewBox="0 0 2362.000000 2362.000000"
 preserveAspectRatio="xMidYMid meet">
<metadata>
Created by potrace 1.12, written by Peter Selinger 2001-2015
</metadata>
<g transform="translate(0.000000,2362.000000) scale(0.100000,-0.100000)"
fill="#000000" stroke="none">
<path d="M6385 18109 c-187 -12 -366 -81 -527 -203 -64 -48 -113 -99 -205
-212 -196 -242 -526 -689 -680 -919 -248 -373 -522 -901 -702 -1350 l-36 -90
0 -175 c0 -172 1 -177 34 -278 66 -202 187 -343 415 -486 48 -30 134 -73 190
-95 105 -41 164 -51 401 -66 50 -3 146 -10 215 -15 69 -5 214 -12 323 -15 222
-6 274 -15 318 -56 30 -28 31 -33 27 -89 -3 -43 -14 -79 -40 -127 -106 -204
-411 -788 -476 -913 -41 -80 -87 -167 -102 -195 -15 -27 -78 -149 -140 -270
-62 -121 -146 -282 -187 -359 -40 -76 -73 -140 -73 -142 0 -1 -40 -79 -88
-171 -49 -92 -125 -238 -169 -323 -44 -85 -139 -267 -210 -405 -72 -137 -169
-324 -215 -415 -47 -91 -118 -228 -158 -305 -40 -77 -138 -266 -217 -420 -80
-154 -169 -325 -198 -380 -29 -55 -101 -194 -160 -310 -121 -237 -243 -473
-350 -680 -249 -481 -397 -771 -870 -1695 -275 -539 -771 -1535 -833 -1673
-34 -76 -62 -152 -62 -168 0 -36 29 -96 62 -126 12 -12 48 -33 78 -47 l55 -26
1333 0 c1103 0 1338 2 1365 14 62 26 163 164 200 276 9 25 43 117 77 205 34
88 82 214 107 280 25 66 62 165 83 220 21 55 56 148 79 208 47 123 106 278
161 422 21 55 61 161 90 235 28 74 83 218 122 320 39 102 97 255 130 340 33
85 70 184 83 220 13 36 51 137 85 225 34 88 86 223 115 300 29 77 90 237 135
355 45 118 104 274 132 345 27 72 66 175 88 230 21 55 59 156 85 225 65 172
141 370 175 460 17 41 52 136 80 210 28 74 64 169 80 210 121 316 139 362 380
995 105 279 143 377 203 535 110 287 139 364 187 490 28 74 64 169 80 210 16
41 52 136 80 210 28 74 68 180 89 235 22 55 58 150 80 210 43 112 80 210 168
440 28 72 67 175 88 230 21 55 54 138 72 185 90 222 114 364 120 713 6 285 3
307 -44 427 -45 112 -151 264 -252 358 -51 48 -151 100 -254 131 -60 18 -102
21 -400 26 -182 2 -507 5 -722 6 -214 1 -415 6 -445 10 -73 12 -140 47 -164
88 -19 33 -19 36 -2 155 10 66 20 135 22 151 13 104 106 446 151 560 69 174
140 292 233 385 106 106 129 124 210 164 l65 31 5260 5 5260 5 50 23 c59 27
100 64 125 112 52 103 212 526 217 575 11 109 -49 216 -132 235 -48 11 -10788
10 -10950 -1z"/>
<path d="M18240 18111 c-189 -6 -197 -7 -253 -35 -66 -32 -153 -113 -191 -179
-14 -24 -73 -165 -131 -313 -336 -857 -541 -1325 -656 -1497 -67 -99 -187
-210 -273 -253 -87 -42 -137 -49 -436 -58 -102 -3 -234 -8 -295 -11 -110 -6
-505 -22 -1215 -50 -558 -22 -823 -27 -1255 -27 -282 0 -417 -3 -487 -13 -180
-26 -373 -119 -517 -250 -134 -122 -219 -225 -284 -345 -19 -36 -488 -1199
-1042 -2585 -554 -1386 -1014 -2533 -1022 -2550 -8 -16 -25 -57 -38 -90 -84
-220 -455 -949 -712 -1402 -624 -1099 -1274 -1895 -1852 -2268 -144 -93 -370
-185 -596 -243 -224 -58 -255 -60 -815 -61 -313 -1 -519 -6 -524 -11 -6 -6
-63 -10 -128 -10 -135 0 -156 -7 -250 -84 -49 -40 -58 -54 -91 -138 -19 -51
-52 -129 -72 -173 -202 -434 -205 -463 -73 -529 l52 -26 862 0 c775 0 982 5
1094 25 14 3 43 8 65 11 171 26 484 137 701 250 224 116 527 311 679 435 11 9
76 63 145 120 658 541 1378 1392 2130 2519 397 595 793 1255 1020 1700 111
218 131 252 185 305 33 33 85 74 115 90 l55 30 1175 5 c1172 6 1175 6 1243 27
38 12 91 36 117 53 83 53 101 77 296 395 54 88 127 207 162 265 132 214 227
378 280 480 49 94 54 109 48 148 -9 63 -39 106 -109 156 -53 37 -73 45 -140
55 -54 7 -383 11 -1060 11 -574 0 -1013 5 -1057 10 -86 12 -159 44 -178 80
-13 23 -5 45 121 315 191 412 277 601 342 750 31 72 72 164 90 205 18 41 57
131 85 200 112 273 170 353 297 413 l68 32 1935 2 c1755 2 1941 4 2004 18 156
38 293 116 412 234 73 73 63 57 479 756 82 137 383 650 470 800 640 1107 914
1609 984 1809 88 250 3 403 -267 479 -75 21 -93 21 -787 22 -390 1 -798 -1
-905 -4z"/>
</g>
</svg>
