<?xml version="1.0" encoding="iso-8859-1"?>
<!-- Generator: Adobe Illustrator 16.0.0, SVG Export Plug-In . SVG Version: 6.00 Build 0)  -->
<!DOCTYPE svg PUBLIC "-//W3C//DTD SVG 1.1//EN" "http://www.w3.org/Graphics/SVG/1.1/DTD/svg11.dtd">
<svg version="1.1" id="Capa_1" xmlns="http://www.w3.org/2000/svg" xmlns:xlink="http://www.w3.org/1999/xlink" x="0px" y="0px"
	 width="462.844px" height="462.844px" viewBox="0 0 462.844 462.844" style="enable-background:new 0 0 462.844 462.844;"
	 xml:space="preserve">
<g>
	<g>
		<path d="M333.453,39.19c0.232-7.384,0.425-14.823,0.521-22.406C334.106,7.512,326.568,0,317.294,0h-2.785H148.333h-2.785
			c-9.273,0-16.81,7.512-16.683,16.785c0.104,7.583,0.291,15.022,0.525,22.406C2.623,79.515,116.895,261.867,201.684,319.938v63.133
			h-15.739c-9.273,0-16.793,7.522-16.793,16.791v62.981h121.745v-62.981c0-9.269-7.521-16.791-16.795-16.791h-12.951v-63.133
			C345.952,261.883,460.219,79.515,333.453,39.19z M122.694,198.999c-27.006-45.925-48.167-113.845,7.624-137.633
			c4.198,82.052,16.751,149.874,34.548,197.052C148.904,240.07,134.995,219.929,122.694,198.999z M340.153,198.999
			c-12.303,20.931-26.209,41.064-42.17,59.418c17.801-47.178,30.355-115,34.552-197.052
			C388.322,85.153,367.155,153.073,340.153,198.999z"/>
	</g>
</g>
<g>
</g>
<g>
</g>
<g>
</g>
<g>
</g>
<g>
</g>
<g>
</g>
<g>
</g>
<g>
</g>
<g>
</g>
<g>
</g>
<g>
</g>
<g>
</g>
<g>
</g>
<g>
</g>
<g>
</g>
</svg>
