<?xml version="1.0" encoding="iso-8859-1"?>
<!-- Generator: Adobe Illustrator 18.1.1, SVG Export Plug-In . SVG Version: 6.00 Build 0)  -->
<svg version="1.1" id="Capa_1" xmlns="http://www.w3.org/2000/svg" xmlns:xlink="http://www.w3.org/1999/xlink" x="0px" y="0px"
	 viewBox="0 0 612 612" style="enable-background:new 0 0 612 612;" xml:space="preserve">
<g>
	<path d="M16.558,408.332C7.413,408.332,0,415.746,0,424.89c0,9.145,7.413,16.558,16.558,16.558h61.418v71.345
		c0,11.725,9.505,21.231,21.231,21.231h71.345v61.418c0,9.145,7.413,16.558,16.558,16.558s16.558-7.413,16.558-16.558v-61.418
		h46.144v61.418c0,9.145,7.413,16.558,16.558,16.558c9.145,0,16.558-7.413,16.558-16.558v-61.418h46.144v61.418
		c0,9.145,7.413,16.558,16.558,16.558c9.145,0,16.558-7.413,16.558-16.558v-61.418h46.145v61.418
		c0,9.145,7.413,16.558,16.558,16.558s16.558-7.413,16.558-16.558v-61.418h71.345c11.726,0,21.231-9.506,21.231-21.231v-71.345
		h61.418c9.145,0,16.558-7.413,16.558-16.558s-7.413-16.558-16.558-16.558h-61.418v-46.144h61.418
		c9.145,0,16.558-7.413,16.558-16.558c0-9.145-7.413-16.558-16.558-16.558h-61.418v-46.144h61.418
		c9.145,0,16.558-7.413,16.558-16.558c0-9.145-7.413-16.558-16.558-16.558h-61.418v-46.144h61.418
		c9.145,0,16.558-7.413,16.558-16.558c0-9.145-7.413-16.558-16.558-16.558h-61.418V99.206c0-11.725-9.505-21.231-21.231-21.231
		h-71.345V16.558C441.449,7.413,434.036,0,424.891,0s-16.558,7.413-16.558,16.558v61.418h-46.145V16.558
		C362.188,7.413,354.775,0,345.63,0s-16.558,7.413-16.558,16.558v61.418h-46.144V16.558C282.927,7.413,275.515,0,266.37,0
		c-9.145,0-16.558,7.413-16.558,16.558v61.418h-46.144V16.558C203.667,7.413,196.254,0,187.109,0s-16.558,7.413-16.558,16.558
		v61.418H99.206c-11.725,0-21.231,9.505-21.231,21.231v71.345H16.558C7.413,170.551,0,177.964,0,187.109s7.413,16.558,16.558,16.558
		h61.418v46.144H16.558C7.413,249.811,0,257.225,0,266.369s7.413,16.558,16.558,16.558h61.418v46.144H16.558
		C7.413,329.072,0,336.485,0,345.63s7.413,16.558,16.558,16.558h61.418v46.144L16.558,408.332L16.558,408.332z M366.415,138.345
		c0-7.817,6.336-14.154,14.154-14.154h93.086c7.817,0,14.154,6.337,14.154,14.154v93.086c0,7.817-6.337,14.154-14.154,14.154h-3.538
		c-7.817,0-14.154-6.336-14.154-14.154v-75.394h-75.394c-7.817,0-14.154-6.337-14.154-14.154V138.345z M366.415,470.117
		c0-7.817,6.336-14.154,14.154-14.154h75.394v-75.394c0-7.817,6.337-14.154,14.154-14.154h3.538c7.817,0,14.154,6.337,14.154,14.154
		v93.086c0,7.817-6.337,14.154-14.154,14.154h-93.086c-7.817,0-14.154-6.337-14.154-14.154V470.117z M124.191,138.345
		c0-7.817,6.336-14.154,14.154-14.154h93.086c7.817,0,14.154,6.337,14.154,14.154v3.538c0,7.817-6.336,14.154-14.154,14.154h-75.394
		v75.394c0,7.817-6.336,14.154-14.154,14.154h-3.539c-7.817,0-14.154-6.336-14.154-14.154L124.191,138.345L124.191,138.345z
		 M124.191,380.568c0-7.817,6.336-14.154,14.154-14.154h3.539c7.817,0,14.154,6.337,14.154,14.154v75.394h75.394
		c7.817,0,14.154,6.337,14.154,14.154v3.538c0,7.817-6.336,14.154-14.154,14.154h-93.086c-7.817,0-14.154-6.337-14.154-14.154
		L124.191,380.568L124.191,380.568z"/>
</g>
<g>
</g>
<g>
</g>
<g>
</g>
<g>
</g>
<g>
</g>
<g>
</g>
<g>
</g>
<g>
</g>
<g>
</g>
<g>
</g>
<g>
</g>
<g>
</g>
<g>
</g>
<g>
</g>
<g>
</g>
</svg>
