<?xml version="1.0" encoding="iso-8859-1"?>
<!-- Generator: Adobe Illustrator 17.1.0, SVG Export Plug-In . SVG Version: 6.00 Build 0)  -->
<!DOCTYPE svg PUBLIC "-//W3C//DTD SVG 1.1//EN" "http://www.w3.org/Graphics/SVG/1.1/DTD/svg11.dtd">
<svg version="1.1" id="Capa_1" xmlns="http://www.w3.org/2000/svg" xmlns:xlink="http://www.w3.org/1999/xlink" x="0px" y="0px"
	 viewBox="0 0 187.99 187.99" style="enable-background:new 0 0 187.99 187.99;" xml:space="preserve">
<path d="M182.99,54.598h-23.283L97.06,6.008c-1.803-1.398-4.326-1.398-6.129,0l-62.648,48.59H5c-2.762,0-5,2.238-5,5v118.434
	c0,2.762,2.238,5,5,5h177.99c2.762,0,5-2.238,5-5V59.598C187.99,56.836,185.752,54.598,182.99,54.598z M93.995,16.287l49.396,38.311
	H44.6L93.995,16.287z M172.329,163.292c0,2.762-2.238,5-5,5H20.662c-2.762,0-5-2.238-5-5v-88c0-2.762,2.238-5,5-5h146.667
	c2.762,0,5,2.238,5,5V163.292z M25.662,158.292h136.667v-78H25.662V158.292z M134.495,144.709h-81c-2.762,0-5-2.238-5-5s2.238-5,5-5
	h81c2.762,0,5,2.238,5,5S137.257,144.709,134.495,144.709z M62.995,115.459c0-2.762,2.238-5,5-5h52c2.762,0,5,2.238,5,5
	s-2.238,5-5,5h-52C65.233,120.459,62.995,118.221,62.995,115.459z M49.995,91.209h88c2.762,0,5,2.238,5,5s-2.238,5-5,5h-88
	c-2.762,0-5-2.238-5-5S47.233,91.209,49.995,91.209z"/>
<g>
</g>
<g>
</g>
<g>
</g>
<g>
</g>
<g>
</g>
<g>
</g>
<g>
</g>
<g>
</g>
<g>
</g>
<g>
</g>
<g>
</g>
<g>
</g>
<g>
</g>
<g>
</g>
<g>
</g>
</svg>
