<?xml version="1.0" standalone="no"?>
<!DOCTYPE svg PUBLIC "-//W3C//DTD SVG 20010904//EN"
 "http://www.w3.org/TR/2001/REC-SVG-20010904/DTD/svg10.dtd">
<svg version="1.0" xmlns="http://www.w3.org/2000/svg"
 width="152.000000pt" height="152.000000pt" viewBox="0 0 152.000000 152.000000"
 preserveAspectRatio="xMidYMid meet">
<metadata>
Created by potrace 1.12, written by Peter Selinger 2001-2015
</metadata>
<g transform="translate(0.000000,152.000000) scale(0.100000,-0.100000)"
fill="#000000" stroke="#000000" stroke-width="5px">
<path d="M378 1193 l-3 -288 -187 -3 -188 -2 0 -60 0 -59 60 -52 c36 -31 68
-69 81 -98 66 -145 79 -167 107 -184 49 -28 78 -22 129 28 58 58 107 64 153
20 25 -24 42 -54 130 -235 89 -182 183 -260 312 -260 96 0 100 3 82 52 -23 67
-18 154 13 216 54 106 219 226 362 263 l51 13 0 150 c0 140 -2 152 -20 163
-42 27 -55 71 -60 208 l-5 130 -146 3 -146 3 -11 -53 c-6 -29 -15 -72 -18 -95
l-7 -43 53 0 c49 0 52 -1 47 -22 -3 -13 -11 -51 -18 -85 l-12 -63 -53 0 -53 0
-11 -57 c-7 -32 -18 -86 -24 -119 -16 -77 -8 -94 44 -94 46 0 46 1 22 -110
l-17 -75 -85 -3 c-133 -5 -205 5 -240 35 -39 32 -38 48 4 256 l33 167 -48 0
c-56 0 -57 2 -36 105 l13 60 51 3 52 3 15 69 c9 38 16 80 16 94 0 24 -3 26
-45 26 l-45 0 0 140 0 140 -175 0 -175 0 -2 -287z"/>
<path d="M949 1393 c-14 -3 -39 -84 -39 -125 0 -4 31 -8 69 -8 l69 0 11 50
c19 89 18 90 -41 89 -29 -1 -60 -3 -69 -6z"/>
<path d="M895 1188 c-2 -7 -29 -141 -60 -298 -31 -157 -59 -293 -61 -303 -5
-16 1 -18 67 -15 l73 3 58 290 c31 160 57 300 57 313 1 21 -3 22 -64 22 -44 0
-67 -4 -70 -12z"/>
</g>
</svg>
