<?xml version="1.0" encoding="iso-8859-1"?>
<!-- Generator: Adobe Illustrator 17.1.0, SVG Export Plug-In . SVG Version: 6.00 Build 0)  -->
<!DOCTYPE svg PUBLIC "-//W3C//DTD SVG 1.1//EN" "http://www.w3.org/Graphics/SVG/1.1/DTD/svg11.dtd">
<svg version="1.1" id="Capa_1" xmlns="http://www.w3.org/2000/svg" xmlns:xlink="http://www.w3.org/1999/xlink" x="0px" y="0px"
	 viewBox="0 0 322.67 322.67" style="enable-background:new 0 0 322.67 322.67;" xml:space="preserve">
<g>
	<path d="M321.353,117.638c-3.885-12.952-16.034-21.998-29.545-21.998c-2.995,0-5.981,0.44-8.876,1.309
		c-12.205,3.662-20.92,14.634-21.899,27.187c-0.512,0.114-1.009,0.244-1.494,0.39c-12.67,3.801-19.886,17.202-16.086,29.871
		c0.38,1.268,0.877,2.518,1.485,3.736c-3.579,4.108-4.864,9.813-3.267,15.139c2.019,6.73,8.332,11.432,15.353,11.432
		c1.559,0,3.111-0.23,4.615-0.681c6.163-1.849,10.548-7.185,11.302-13.429c0.129-0.036,0.257-0.073,0.383-0.111
		c6.76-2.027,12.238-6.916,15.056-13.31c1.138,0.128,2.282,0.192,3.423,0.192h0.001c2.991,0,5.972-0.438,8.86-1.305
		c7.893-2.367,14.393-7.668,18.302-14.926C322.875,133.877,323.723,125.532,321.353,117.638z"/>
	<path d="M233.998,177.067h-2.856v-23.518c0-5.475-4.454-9.961-9.929-10l-4.276-0.031c-3.889-0.028-8.797-2.908-10.718-6.29
		l-20.703-36.457c-2.551-4.49-8.593-8.007-13.756-8.007H80.397c-5.128,0-11.321,3.375-14.101,7.683l-24.314,37.68
		c-2.197,3.405-7.39,7.056-11.339,7.971l-21.31,4.939C4.187,152.23,0,157.498,0,162.781v37.145c0,5.481,4.46,9.941,9.941,9.941
		h15.88c3.369,11.563,14.055,20.039,26.689,20.039c12.635,0,23.321-8.477,26.689-20.039h60.029
		c3.368,11.563,14.055,20.039,26.689,20.039c12.635,0,23.32-8.477,26.689-20.039H221.2c5.482,0,9.941-4.46,9.941-9.941v-6.209h2.856
		c2.916,0,6.392-1.444,6.392-8.325C240.39,178.511,236.914,177.067,233.998,177.067z M52.511,215.914
		c-7.626,0-13.809-6.184-13.809-13.809c0-7.627,6.183-13.811,13.809-13.811c7.627,0,13.809,6.184,13.809,13.811
		C66.32,209.731,60.138,215.914,52.511,215.914z M119.486,146.109H61.64c-3.633,0-5.056-2.536-3.163-5.637l17.619-28.855
		c1.893-3.101,6.413-5.637,10.046-5.637h33.345V146.109z M165.919,215.914c-7.626,0-13.81-6.184-13.81-13.809
		c0-7.627,6.184-13.811,13.81-13.811c7.626,0,13.809,6.184,13.809,13.811C179.728,209.731,173.545,215.914,165.919,215.914z
		 M186.057,146.109h-50.68V105.98h29.056c3.633,0,8.014,2.616,9.737,5.813l15.358,28.502
		C191.251,143.492,189.689,146.109,186.057,146.109z"/>
</g>
<g>
</g>
<g>
</g>
<g>
</g>
<g>
</g>
<g>
</g>
<g>
</g>
<g>
</g>
<g>
</g>
<g>
</g>
<g>
</g>
<g>
</g>
<g>
</g>
<g>
</g>
<g>
</g>
<g>
</g>
</svg>
