<?xml version="1.0" encoding="iso-8859-1"?>
<!-- Generator: Adobe Illustrator 16.0.0, SVG Export Plug-In . SVG Version: 6.00 Build 0)  -->
<!DOCTYPE svg PUBLIC "-//W3C//DTD SVG 1.1//EN" "http://www.w3.org/Graphics/SVG/1.1/DTD/svg11.dtd">
<svg version="1.1" id="Capa_1" xmlns="http://www.w3.org/2000/svg" xmlns:xlink="http://www.w3.org/1999/xlink" x="0px" y="0px"
	 width="612px" height="612px" viewBox="0 0 612 612" style="enable-background:new 0 0 612 612;" xml:space="preserve">
<g>
	<g>
		<path d="M63.698,305.798c0.281-57.651,22.994-111.74,63.963-152.305c12.499-12.375,12.599-32.542,0.22-45.036
			c-12.378-12.499-32.538-12.592-45.036-0.22C29.788,160.769,0.369,230.821,0.003,305.491c-0.362,74.662,28.368,145,80.904,198.053
			c6.228,6.29,14.426,9.438,22.628,9.438c8.098,0,16.2-3.067,22.408-9.218c12.498-12.375,12.599-32.542,0.22-45.036
			C85.598,417.761,63.413,363.453,63.698,305.798z"/>
		<path d="M222.497,174.312c-12.372-12.499-32.538-12.599-45.036-0.22c-35.696,35.34-55.487,82.466-55.733,132.698
			c-0.246,50.233,19.083,97.551,54.429,133.243c6.228,6.289,14.427,9.438,22.628,9.438c8.098,0,16.203-3.067,22.408-9.218
			c12.498-12.375,12.599-32.541,0.22-45.036c-23.375-23.605-36.158-54.897-35.993-88.112c0.162-33.221,13.252-64.381,36.854-87.756
			C234.775,206.97,234.872,186.811,222.497,174.312z"/>
		<path d="M531.223,108.457c-12.372-12.499-32.538-12.596-45.036-0.22c-12.499,12.375-12.599,32.542-0.221,45.037
			c40.565,40.966,62.754,95.275,62.472,152.926c-0.281,57.651-22.997,111.744-63.963,152.309
			c-12.498,12.376-12.599,32.542-0.22,45.036c6.228,6.29,14.426,9.438,22.628,9.438c8.098,0,16.199-3.067,22.408-9.218
			C638.809,395.308,639.679,217.974,531.223,108.457z"/>
		<path d="M435.973,173.675c-12.372-12.498-32.538-12.595-45.036-0.22c-12.498,12.375-12.599,32.542-0.22,45.036
			c23.375,23.605,36.158,54.898,35.993,88.116c-0.161,33.218-13.252,64.381-36.854,87.756
			c-12.499,12.376-12.599,32.542-0.221,45.037c6.229,6.289,14.427,9.438,22.629,9.438c8.098,0,16.199-3.067,22.408-9.218
			C508.352,366.659,508.938,247.357,435.973,173.675z"/>
		<path d="M307.49,244.824l-0.741-0.003c-16.413,0-31.862,6.429-43.5,18.108c-11.563,11.599-17.901,26.938-17.853,43.186
			c0.101,33.23,27.507,60.621,61.094,61.062l0.815,0.003c0.003,0,0.003,0,0.003,0c16.297,0,31.577-6.309,43.024-17.769
			c11.547-11.56,17.895-27.038,17.878-43.587C368.176,272.03,341.507,245.235,307.49,244.824z"/>
	</g>
</g>
<g>
</g>
<g>
</g>
<g>
</g>
<g>
</g>
<g>
</g>
<g>
</g>
<g>
</g>
<g>
</g>
<g>
</g>
<g>
</g>
<g>
</g>
<g>
</g>
<g>
</g>
<g>
</g>
<g>
</g>
</svg>
